<svg version="1.1" id="Layer_1" xmlns="http://www.w3.org/2000/svg" x="0" y="0" viewBox="0 0 512 512" xml:space="preserve"><style>.st0{fill:#8089ff}</style><g id="Quotemarks-left"><path class="st0" d="M405 209.8c-1-11.1-.2-41.5 28.8-83.6 2.2-3.2 1.8-7.5-.9-10.2-11.8-11.8-19.2-19.3-24.3-24.5-6.8-6.9-9.8-10-14.4-14.1-3-2.7-7.6-2.8-10.6-.1-50.6 44-106.8 135-98.7 246.5 4.8 65.5 52.5 113 113.5 113 62.6 0 113.5-50.9 113.5-113.5.1-60.5-47.3-110.1-106.9-113.5zM120.9 209.8c-1-11.1-.3-41.4 28.8-83.6 2.2-3.2 1.8-7.5-.9-10.2-11.8-11.8-19.1-19.3-24.3-24.5-6.8-6.9-9.9-10.1-14.4-14.2-3-2.7-7.6-2.7-10.6-.1-50.6 44-106.8 135-98.7 246.5 4.8 65.4 52.5 113 113.5 113 62.6 0 113.5-50.9 113.5-113.5.1-60.4-47.3-110-106.9-113.4z"/></g></svg>